<mxfile host="Electron" agent="Mozilla/5.0 (Macintosh; Intel Mac OS X 10_15_7) AppleWebKit/537.36 (KHTML, like Gecko) draw.io/27.0.9 Chrome/134.0.6998.205 Electron/35.4.0 Safari/537.36" version="27.0.9">
  <diagram name="Page-1" id="H3oKLqlX0tTp-uY2Kpaz">
    <mxGraphModel dx="679" dy="409" grid="1" gridSize="10" guides="1" tooltips="1" connect="1" arrows="1" fold="1" page="1" pageScale="1" pageWidth="850" pageHeight="1100" math="1" shadow="0">
      <root>
        <mxCell id="0" />
        <mxCell id="3jEwKh9Pe0ptTPQIIk5x-5" value="Area" style="locked=1;" parent="0" />
        <mxCell id="3jEwKh9Pe0ptTPQIIk5x-69" value="" style="rounded=1;whiteSpace=wrap;html=1;dashed=1;fillColor=none;arcSize=8;" parent="3jEwKh9Pe0ptTPQIIk5x-5" vertex="1">
          <mxGeometry x="160" y="310" width="270" height="120" as="geometry" />
        </mxCell>
        <mxCell id="3jEwKh9Pe0ptTPQIIk5x-4" value="Lines" style="locked=1;" parent="0" />
        <mxCell id="3jEwKh9Pe0ptTPQIIk5x-16" value="" style="endArrow=classic;html=1;rounded=0;" parent="3jEwKh9Pe0ptTPQIIk5x-4" edge="1">
          <mxGeometry width="50" height="50" relative="1" as="geometry">
            <mxPoint x="120" y="365" as="sourcePoint" />
            <mxPoint x="172" y="365" as="targetPoint" />
          </mxGeometry>
        </mxCell>
        <mxCell id="3jEwKh9Pe0ptTPQIIk5x-17" value="" style="endArrow=classic;html=1;rounded=0;" parent="3jEwKh9Pe0ptTPQIIk5x-4" edge="1">
          <mxGeometry width="50" height="50" relative="1" as="geometry">
            <mxPoint x="120" y="385" as="sourcePoint" />
            <mxPoint x="172" y="385" as="targetPoint" />
          </mxGeometry>
        </mxCell>
        <mxCell id="3jEwKh9Pe0ptTPQIIk5x-20" value="" style="endArrow=classic;html=1;rounded=0;" parent="3jEwKh9Pe0ptTPQIIk5x-4" edge="1">
          <mxGeometry width="50" height="50" relative="1" as="geometry">
            <mxPoint x="244" y="374" as="sourcePoint" />
            <mxPoint x="310" y="390" as="targetPoint" />
            <Array as="points">
              <mxPoint x="264" y="374" />
              <mxPoint x="264" y="390" />
            </Array>
          </mxGeometry>
        </mxCell>
        <mxCell id="3jEwKh9Pe0ptTPQIIk5x-22" value="" style="endArrow=classic;html=1;rounded=0;" parent="3jEwKh9Pe0ptTPQIIk5x-4" edge="1">
          <mxGeometry width="50" height="50" relative="1" as="geometry">
            <mxPoint x="425" y="360" as="sourcePoint" />
            <mxPoint x="460" y="360" as="targetPoint" />
          </mxGeometry>
        </mxCell>
        <mxCell id="3jEwKh9Pe0ptTPQIIk5x-23" value="" style="endArrow=classic;html=1;rounded=0;" parent="3jEwKh9Pe0ptTPQIIk5x-4" edge="1">
          <mxGeometry width="50" height="50" relative="1" as="geometry">
            <mxPoint x="540" y="360" as="sourcePoint" />
            <mxPoint x="309" y="410" as="targetPoint" />
            <Array as="points">
              <mxPoint x="569" y="360" />
              <mxPoint x="569" y="440" />
              <mxPoint x="264" y="440" />
              <mxPoint x="264" y="410" />
            </Array>
          </mxGeometry>
        </mxCell>
        <mxCell id="3jEwKh9Pe0ptTPQIIk5x-37" value="" style="endArrow=classic;html=1;rounded=0;" parent="3jEwKh9Pe0ptTPQIIk5x-4" edge="1">
          <mxGeometry width="50" height="50" relative="1" as="geometry">
            <mxPoint x="310" y="400" as="sourcePoint" />
            <mxPoint x="370" y="380" as="targetPoint" />
            <Array as="points">
              <mxPoint x="340" y="400" />
              <mxPoint x="340" y="380" />
            </Array>
          </mxGeometry>
        </mxCell>
        <mxCell id="Q-mhqSvsPF1NudLkKP7M-14" value="" style="endArrow=classic;html=1;rounded=0;" parent="3jEwKh9Pe0ptTPQIIk5x-4" edge="1">
          <mxGeometry width="50" height="50" relative="1" as="geometry">
            <mxPoint x="280" y="440" as="sourcePoint" />
            <mxPoint x="210" y="400" as="targetPoint" />
            <Array as="points">
              <mxPoint x="210" y="440" />
            </Array>
          </mxGeometry>
        </mxCell>
        <mxCell id="Q-mhqSvsPF1NudLkKP7M-17" value="" style="endArrow=classic;html=1;rounded=0;" parent="3jEwKh9Pe0ptTPQIIk5x-4" edge="1">
          <mxGeometry width="50" height="50" relative="1" as="geometry">
            <mxPoint x="264" y="374" as="sourcePoint" />
            <mxPoint x="280" y="340" as="targetPoint" />
            <Array as="points">
              <mxPoint x="264" y="340" />
            </Array>
          </mxGeometry>
        </mxCell>
        <mxCell id="Q-mhqSvsPF1NudLkKP7M-19" value="" style="endArrow=classic;html=1;rounded=0;" parent="3jEwKh9Pe0ptTPQIIk5x-4" edge="1">
          <mxGeometry width="50" height="50" relative="1" as="geometry">
            <mxPoint x="480" y="360" as="sourcePoint" />
            <mxPoint x="500" y="360" as="targetPoint" />
          </mxGeometry>
        </mxCell>
        <mxCell id="UhmLuEQKw8K-RZWU0Ll9-4" value="" style="endArrow=classic;html=1;rounded=0;" parent="3jEwKh9Pe0ptTPQIIk5x-4" edge="1">
          <mxGeometry width="50" height="50" relative="1" as="geometry">
            <mxPoint x="340" y="340" as="sourcePoint" />
            <mxPoint x="370" y="340" as="targetPoint" />
          </mxGeometry>
        </mxCell>
        <mxCell id="1" value="Blocks" style="locked=1;" parent="0" />
        <mxCell id="3jEwKh9Pe0ptTPQIIk5x-11" value="" style="rounded=1;whiteSpace=wrap;html=1;arcSize=19;fillColor=none;" parent="1" vertex="1">
          <mxGeometry x="448" y="331" width="108" height="69" as="geometry" />
        </mxCell>
        <mxCell id="3jEwKh9Pe0ptTPQIIk5x-15" value="" style="rounded=0;whiteSpace=wrap;html=1;fillColor=#000000;rotation=-180;" parent="1" vertex="1">
          <mxGeometry x="310" y="380" width="3" height="40" as="geometry" />
        </mxCell>
        <mxCell id="3jEwKh9Pe0ptTPQIIk5x-18" value="" style="rounded=1;whiteSpace=wrap;html=1;" parent="1" vertex="1">
          <mxGeometry x="172" y="349" width="75" height="50" as="geometry" />
        </mxCell>
        <mxCell id="3jEwKh9Pe0ptTPQIIk5x-49" value="" style="rounded=1;whiteSpace=wrap;html=1;fillColor=#dae8fc;strokeColor=#6c8ebf;" parent="1" vertex="1">
          <mxGeometry x="280" y="316" width="60" height="50" as="geometry" />
        </mxCell>
        <mxCell id="3jEwKh9Pe0ptTPQIIk5x-51" value="" style="rounded=1;whiteSpace=wrap;html=1;fillColor=#fff2cc;strokeColor=#d6b656;" parent="1" vertex="1">
          <mxGeometry x="371" y="318" width="54" height="81" as="geometry" />
        </mxCell>
        <mxCell id="UhmLuEQKw8K-RZWU0Ll9-1" value="" style="whiteSpace=wrap;html=1;aspect=fixed;" parent="1" vertex="1">
          <mxGeometry x="461" y="345.5" width="26" height="26" as="geometry" />
        </mxCell>
        <mxCell id="leDf2CsrQkZODEgR6sBD-1" value="" style="rounded=1;whiteSpace=wrap;html=1;arcSize=19;" parent="1" vertex="1">
          <mxGeometry x="500" y="339" width="50" height="41" as="geometry" />
        </mxCell>
        <mxCell id="3jEwKh9Pe0ptTPQIIk5x-3" value="Math" style="locked=1;" parent="0" />
        <mxCell id="3jEwKh9Pe0ptTPQIIk5x-26" value="$$\boldsymbol{q}_d$$" style="text;html=1;align=center;verticalAlign=middle;resizable=0;points=[];autosize=1;strokeColor=none;fillColor=none;" parent="3jEwKh9Pe0ptTPQIIk5x-3" vertex="1">
          <mxGeometry x="79" y="340" width="140" height="30" as="geometry" />
        </mxCell>
        <mxCell id="3jEwKh9Pe0ptTPQIIk5x-29" value="$$\boldsymbol&amp;nbsp;{\tfrac{\rm{d}}{\rm{d}t}&amp;nbsp;q}_d$$" style="text;html=1;align=center;verticalAlign=middle;resizable=0;points=[];autosize=1;strokeColor=none;fillColor=none;" parent="3jEwKh9Pe0ptTPQIIk5x-3" vertex="1">
          <mxGeometry x="10" y="360" width="260" height="30" as="geometry" />
        </mxCell>
        <mxCell id="3jEwKh9Pe0ptTPQIIk5x-30" value="$$\widehat{\boldsymbol{\theta}}$$" style="text;html=1;align=center;verticalAlign=middle;resizable=0;points=[];autosize=1;strokeColor=none;fillColor=none;" parent="3jEwKh9Pe0ptTPQIIk5x-3" vertex="1">
          <mxGeometry x="251" y="316" width="200" height="30" as="geometry" />
        </mxCell>
        <mxCell id="3jEwKh9Pe0ptTPQIIk5x-44" value="$$\boldsymbol r$$" style="text;html=1;align=center;verticalAlign=middle;resizable=0;points=[];autosize=1;strokeColor=none;fillColor=none;" parent="3jEwKh9Pe0ptTPQIIk5x-3" vertex="1">
          <mxGeometry x="195" y="352" width="120" height="30" as="geometry" />
        </mxCell>
        <mxCell id="3jEwKh9Pe0ptTPQIIk5x-77" value="$$\rm sat(\cdot)$$" style="text;html=1;align=center;verticalAlign=middle;resizable=0;points=[];autosize=1;strokeColor=none;fillColor=none;fontSize=8;" parent="3jEwKh9Pe0ptTPQIIk5x-3" vertex="1">
          <mxGeometry x="429" y="348" width="90" height="20" as="geometry" />
        </mxCell>
        <mxCell id="3jEwKh9Pe0ptTPQIIk5x-78" value="$$\boldsymbol{q}_{n}$$" style="text;html=1;align=center;verticalAlign=middle;resizable=0;points=[];autosize=1;strokeColor=none;fillColor=none;" parent="3jEwKh9Pe0ptTPQIIk5x-3" vertex="1">
          <mxGeometry x="279" y="356" width="150" height="30" as="geometry" />
        </mxCell>
        <mxCell id="Q-mhqSvsPF1NudLkKP7M-2" value="$$\boldsymbol{q},\boldsymbol{\tfrac{\rm{d}}{\rm{d}t} q}$$" style="text;html=1;align=center;verticalAlign=middle;resizable=0;points=[];autosize=1;strokeColor=none;fillColor=none;" parent="3jEwKh9Pe0ptTPQIIk5x-3" vertex="1">
          <mxGeometry x="25" y="400" width="320" height="30" as="geometry" />
        </mxCell>
        <mxCell id="YXTl3u4vy5jYAbG0ojDT-3" value="$$\hat\Phi$$" style="text;html=1;align=center;verticalAlign=middle;resizable=0;points=[];autosize=1;strokeColor=none;fillColor=none;fontSize=12;" parent="3jEwKh9Pe0ptTPQIIk5x-3" vertex="1">
          <mxGeometry x="393" y="336" width="90" height="30" as="geometry" />
        </mxCell>
        <mxCell id="UhmLuEQKw8K-RZWU0Ll9-6" value="$$\boldsymbol{q},\boldsymbol{\tfrac{\rm{d}}{\rm{d}t} q}$$" style="text;html=1;align=center;verticalAlign=middle;resizable=0;points=[];autosize=1;strokeColor=none;fillColor=none;" parent="3jEwKh9Pe0ptTPQIIk5x-3" vertex="1">
          <mxGeometry x="383" y="413" width="320" height="30" as="geometry" />
        </mxCell>
        <mxCell id="3jEwKh9Pe0ptTPQIIk5x-6" value="Names" style="" parent="0" />
        <mxCell id="3jEwKh9Pe0ptTPQIIk5x-52" value="Weight&lt;div&gt;Optimizer&lt;/div&gt;" style="text;html=1;align=center;verticalAlign=middle;resizable=0;points=[];autosize=1;strokeColor=none;fillColor=none;fontFamily=Times New Roman;" parent="3jEwKh9Pe0ptTPQIIk5x-6" vertex="1">
          <mxGeometry x="273" y="320" width="70" height="40" as="geometry" />
        </mxCell>
        <mxCell id="3jEwKh9Pe0ptTPQIIk5x-72" value="Deep&amp;nbsp;&lt;div&gt;Neural&lt;div&gt;Network&lt;/div&gt;&lt;/div&gt;" style="text;html=1;align=center;verticalAlign=middle;resizable=0;points=[];autosize=1;strokeColor=none;fillColor=none;fontFamily=Times New Roman;" parent="3jEwKh9Pe0ptTPQIIk5x-6" vertex="1">
          <mxGeometry x="363" y="320" width="70" height="60" as="geometry" />
        </mxCell>
        <mxCell id="RQTAaq4a4_ipLARYYstB-5" value="&lt;div&gt;System&lt;/div&gt;&lt;div&gt;Model&lt;/div&gt;&lt;div&gt;&lt;br&gt;&lt;/div&gt;" style="text;html=1;align=center;verticalAlign=middle;resizable=0;points=[];autosize=1;strokeColor=none;fillColor=none;fontFamily=Times New Roman;" parent="3jEwKh9Pe0ptTPQIIk5x-6" vertex="1">
          <mxGeometry x="495" y="336" width="60" height="60" as="geometry" />
        </mxCell>
        <mxCell id="Q-mhqSvsPF1NudLkKP7M-24" value="Error Filtering" style="text;html=1;align=center;verticalAlign=middle;resizable=0;points=[];autosize=1;strokeColor=none;fillColor=none;fontFamily=Times New Roman;" parent="3jEwKh9Pe0ptTPQIIk5x-6" vertex="1">
          <mxGeometry x="164" y="360" width="90" height="30" as="geometry" />
        </mxCell>
        <mxCell id="jXpnGiK7oi-8-GfHfyG--2" value="Constrained Optimization-Based Neuro-Adaptive Controller" style="text;html=1;align=center;verticalAlign=middle;resizable=0;points=[];autosize=1;strokeColor=none;fillColor=none;fontFamily=Times New Roman;" parent="3jEwKh9Pe0ptTPQIIk5x-6" vertex="1">
          <mxGeometry x="134" y="283" width="310" height="30" as="geometry" />
        </mxCell>
        <mxCell id="8JliXiu9Jx-dk9qfxCAc-1" value="$$(3)$$" style="text;html=1;align=center;verticalAlign=middle;resizable=0;points=[];autosize=1;strokeColor=none;fillColor=none;" vertex="1" parent="3jEwKh9Pe0ptTPQIIk5x-6">
          <mxGeometry x="470" y="373" width="60" height="30" as="geometry" />
        </mxCell>
        <mxCell id="8JliXiu9Jx-dk9qfxCAc-2" value="$$(4),(5)$$" style="text;html=1;align=center;verticalAlign=middle;resizable=0;points=[];autosize=1;strokeColor=none;fillColor=none;" vertex="1" parent="3jEwKh9Pe0ptTPQIIk5x-6">
          <mxGeometry x="360" y="369" width="80" height="30" as="geometry" />
        </mxCell>
      </root>
    </mxGraphModel>
  </diagram>
</mxfile>
